<mxfile host="app.diagrams.net" modified="2024-05-12T16:01:27.730Z" agent="Mozilla/5.0 (Windows NT 10.0; Win64; x64; rv:125.0) Gecko/20100101 Firefox/125.0" version="24.3.1" etag="NHd7N9l9tTdSwWvnYDAT" type="github">
  <diagram name="Page-1" id="9p3UUd6QseOlP8Mw4b81">
    <mxGraphModel>
      <root>
        <mxCell id="0" />
        <mxCell id="1" parent="0" />
      </root>
    </mxGraphModel>
  </diagram>
</mxfile>
